<svg width="182" height="73" viewBox="0 0 182 73" fill="none" xmlns="http://www.w3.org/2000/svg">
<path d="M13.0829 45.6076C9.17881 45.6076 6.06383 44.534 3.73798 42.3869C1.41213 40.2397 0.207665 37.2667 0.0415331 33.4266L0 31.3208L0.0415331 29.2149C0.207665 25.4161 1.41213 22.4431 3.73798 20.2959C6.06383 18.1488 9.17881 17.0752 13.0829 17.0752C15.8656 17.0752 18.233 17.5707 20.1435 18.5617C22.0956 19.5527 23.5077 20.7501 24.463 22.1953C25.4182 23.5993 25.9166 24.9619 25.9997 26.2832C26.0412 26.6548 25.9166 26.9439 25.6259 27.1916C25.3767 27.4394 25.086 27.5632 24.7122 27.5632H19.9774C19.6036 27.5632 19.3129 27.4807 19.1468 27.3568C18.9806 27.1916 18.773 26.8613 18.6068 26.4484C18.0669 25.127 17.3608 24.136 16.4886 23.558C15.658 22.9386 14.5366 22.6496 13.2075 22.6496C11.3801 22.6496 9.96794 23.2276 8.97115 24.3425C7.97435 25.4574 7.43442 27.1916 7.39289 29.5039L7.35136 31.4446L7.39289 33.1789C7.55902 37.7622 9.51108 40.0333 13.166 40.0333C14.5366 40.0333 15.658 39.7442 16.5302 39.2074C17.3608 38.5881 18.0669 37.6384 18.6068 36.2345C18.7314 35.8628 18.8976 35.5738 19.1052 35.4086C19.3129 35.2435 19.6036 35.1609 20.0189 35.1609H24.7537C25.1275 35.1609 25.4182 35.2847 25.6674 35.5325C25.9582 35.7802 26.0828 36.0693 26.0412 36.4409C25.9582 37.6797 25.4598 39.001 24.5461 40.4462C23.6323 41.8501 22.2202 43.0888 20.3097 44.0798C18.3576 45.0708 15.9487 45.6076 13.0829 45.6076ZM28.8655 45.0708C28.4917 45.0708 28.201 44.947 27.9518 44.6992C27.7026 44.4515 27.578 44.1624 27.578 43.7908V8.8169C27.578 8.44528 27.7026 8.11495 27.9518 7.90849C28.201 7.66074 28.4917 7.53687 28.8655 7.53687H33.6833C34.0571 7.53687 34.3894 7.66074 34.5971 7.90849C34.8463 8.11495 34.9709 8.40399 34.9709 8.8169V20.874C37.089 18.3552 39.9548 17.0752 43.5267 17.0752C46.8078 17.0752 49.3828 18.1488 51.3349 20.2959C53.2869 22.4018 54.2422 25.2922 54.2422 28.9671V43.8321C54.2422 44.2037 54.1176 44.4928 53.8684 44.7405C53.6607 44.9883 53.37 45.1121 52.9547 45.1121H48.1784C47.8046 45.1121 47.4723 44.9883 47.2231 44.7405C46.9739 44.4928 46.8493 44.2037 46.8493 43.8321V29.2562C46.8493 27.1916 46.3509 25.6225 45.3126 24.5077C44.3158 23.3515 42.9037 22.7734 40.9932 22.7734C39.1657 22.7734 37.712 23.3515 36.6322 24.5077C35.5523 25.6638 34.9709 27.2742 34.9709 29.2562V43.7908C34.9709 44.1624 34.8463 44.4515 34.5971 44.6992C34.3894 44.947 34.0987 45.0708 33.6833 45.0708H28.8655ZM69.028 45.6076C65.0408 45.6076 61.8843 44.4928 59.5584 42.2217C57.2741 39.9507 56.0281 36.7712 55.9035 32.6008L55.862 31.2795C55.862 26.8613 57.0249 23.3928 59.3092 20.874C61.6351 18.3552 64.8747 17.0752 68.9865 17.0752C73.2228 17.0752 76.4624 18.3552 78.7052 20.874C80.9895 23.3928 82.1524 26.7787 82.1524 31.0317V32.1466C82.1524 32.5182 82.0278 32.8073 81.7786 33.055C81.5294 33.3028 81.1972 33.4266 80.8234 33.4266H63.1718V33.8395C63.2549 35.8215 63.7948 37.4319 64.7501 38.7532C65.7884 40.0333 67.159 40.6526 68.9449 40.6526C70.98 40.6526 72.5998 39.8268 73.8874 38.2164C74.2196 37.8448 74.4688 37.5971 74.6349 37.5145C74.8011 37.3906 75.1333 37.3493 75.5487 37.3493H80.2419C80.5742 37.3493 80.8234 37.4319 81.0311 37.5971C81.2803 37.7622 81.4048 38.01 81.4048 38.3403C81.4048 39.1661 80.9064 40.1984 79.8681 41.3546C78.8713 42.4695 77.4592 43.4605 75.5487 44.3276C73.6797 45.1947 71.4784 45.6076 69.028 45.6076ZM74.8011 28.8846V28.7607C74.8011 26.6961 74.2612 25.0445 73.2228 23.8057C72.1845 22.5257 70.7724 21.9063 68.9865 21.9063C67.159 21.9063 65.7469 22.5257 64.7501 23.8057C63.7118 25.0445 63.2134 26.6961 63.2134 28.7607V28.8846H74.8011ZM95.7753 45.6076C91.8712 45.6076 88.7562 44.534 86.4304 42.3869C84.146 40.2397 82.9 37.2667 82.7754 33.4679L82.7339 31.3621L82.7754 29.2562C82.9 25.4574 84.146 22.4844 86.4304 20.3372C88.7562 18.1901 91.8712 17.1165 95.7753 17.1165C98.558 17.1165 100.925 17.612 102.836 18.603C104.788 19.594 106.2 20.7914 107.155 22.2366C108.111 23.6405 108.609 25.0032 108.692 26.3245C108.734 26.6961 108.609 26.9852 108.318 27.2329C108.069 27.4807 107.778 27.6045 107.405 27.6045H102.67C102.296 27.6045 102.005 27.5219 101.839 27.3981C101.673 27.2329 101.465 26.9026 101.299 26.4897C100.759 25.1683 100.053 24.1773 99.181 23.5993C98.3503 22.9799 97.2289 22.6908 95.8999 22.6908C94.0724 22.6908 92.6603 23.2689 91.6635 24.3838C90.6667 25.4987 90.1268 27.2329 90.0853 29.5452L90.0437 31.4859L90.0853 33.2202C90.2929 37.8035 92.245 40.0746 95.9414 40.0746C97.312 40.0746 98.4334 39.7855 99.3056 39.2487C100.136 38.6294 100.842 37.6797 101.382 36.2757C101.507 35.9041 101.673 35.6151 101.881 35.4499C102.088 35.2847 102.379 35.2022 102.794 35.2022H107.529C107.903 35.2022 108.194 35.326 108.443 35.5738C108.734 35.8215 108.858 36.1106 108.817 36.4822C108.734 37.7209 108.235 39.0423 107.321 40.4875C106.408 41.8914 104.996 43.1301 103.085 44.1211C101.008 45.0708 98.6411 45.6076 95.7753 45.6076ZM111.558 45.0708C111.184 45.0708 110.893 44.947 110.644 44.6992C110.395 44.4515 110.27 44.1624 110.27 43.7908V8.8169C110.27 8.44528 110.395 8.11495 110.644 7.90849C110.893 7.66074 111.184 7.53687 111.558 7.53687H115.96C116.334 7.53687 116.625 7.66074 116.874 7.90849C117.123 8.15624 117.248 8.44528 117.248 8.8169V26.9026L126.053 18.4791C126.178 18.3965 126.302 18.2727 126.551 18.1075C126.801 17.901 127.05 17.7359 127.257 17.6946C127.465 17.612 127.756 17.5707 128.046 17.5707H133.114C133.487 17.5707 133.737 17.6946 133.944 17.901C134.152 18.1075 134.276 18.3965 134.276 18.7269C134.276 19.0572 134.11 19.3462 133.737 19.6766L122.896 29.8756L135.066 42.965C135.398 43.2953 135.564 43.5843 135.564 43.8734C135.564 44.245 135.439 44.4927 135.232 44.6992C135.024 44.9057 134.733 45.0295 134.443 45.0295H129.292C128.794 45.0295 128.42 44.9882 128.171 44.8644C127.963 44.7405 127.673 44.4928 127.34 44.1211L117.289 33.5092V43.7495C117.289 44.1211 117.165 44.4102 116.916 44.6579C116.666 44.9057 116.376 45.0295 116.002 45.0295H111.558V45.0708Z" fill="#F8FAFC"/>
<path d="M159.57 34.7068L151.679 27.7286C151.471 27.5634 151.347 27.2744 151.347 27.0266V19.6767C151.347 19.1399 151.762 18.727 152.302 18.727H153.216C153.299 18.727 153.423 18.727 153.506 18.727C155.832 18.727 163.682 18.6444 163.682 12.5746C163.682 7.37186 155.459 7.53702 149.104 7.70219C148.273 7.70219 147.484 7.74348 146.737 7.74348C146.197 7.74348 145.781 8.1564 145.781 8.69319C145.781 9.68418 145.781 11.2533 145.781 12.8636C145.781 14.3088 145.781 15.7127 145.781 16.6624V38.3405C145.781 38.5882 145.698 38.836 145.491 39.0424L139.676 44.8232C139.053 45.4426 138.015 44.9884 138.015 44.1213V1.01297C138.015 0.47618 138.43 0.0632648 138.97 0.0632648H141.877C143.123 0.0632648 144.328 0.0632648 145.574 0.0219734C145.657 0.0219734 145.781 0.0219734 145.864 0.0219734C155.002 -0.0606096 163.599 -0.143193 168.292 4.44016C170.41 6.50474 171.449 9.22997 171.449 12.5746C171.449 18.2315 167.96 22.6497 162.228 24.8794C161.564 25.1272 161.356 26.0356 161.896 26.4898L165.094 29.2976C165.136 29.3389 165.219 29.3802 165.26 29.4215L172.238 35.6565C172.279 35.6978 172.279 35.7391 172.321 35.7391L180.96 43.791C181.375 44.1626 181.375 44.7407 181.043 45.1536L177.139 49.4892C176.765 49.9021 176.184 49.9021 175.768 49.5718L166.672 41.1483" fill="white"/>
<path d="M172.196 33.5094C172.487 33.7984 172.944 33.7571 173.235 33.5094L181.334 24.7143C181.707 24.3427 181.707 23.7233 181.334 23.3517L177.056 19.429C176.682 19.0574 176.059 19.0574 175.685 19.429L167.586 28.2241C167.295 28.5131 167.295 29.0086 167.586 29.2977L172.196 33.5094Z" fill="white"/>
<path d="M159.695 37.0193C159.404 36.7302 158.947 36.7715 158.656 37.0606L134.899 60.5967C134.484 61.0096 133.819 60.9683 133.487 60.5141L125.679 50.3151C125.513 50.1087 125.222 49.9848 124.931 49.9848H117.331C116.5 49.9848 116.043 50.9345 116.583 51.5539L132.989 71.9106C133.363 72.3235 134.027 72.3648 134.401 71.9932L164.388 42.3046C164.679 42.0155 164.679 41.4787 164.346 41.1897L159.695 37.0193Z" fill="white"/>
</svg>
