<svg width="422" height="170" viewBox="0 0 422 170" fill="none" xmlns="http://www.w3.org/2000/svg">
<path d="M30.3996 107.184C21.328 107.184 14.09 104.673 8.68561 99.65C3.28123 94.6274 0.482534 87.6731 0.0965068 78.6905L0 73.7645L0.0965068 68.8385C0.482534 59.9524 3.28123 52.9981 8.68561 47.9755C14.09 42.953 21.328 40.4417 30.3996 40.4417C36.8656 40.4417 42.3665 41.6007 46.8058 43.9188C51.3416 46.2369 54.6228 49.038 56.8425 52.4186C59.0621 55.7025 60.2202 58.89 60.4132 61.9808C60.5097 62.8501 60.2202 63.5262 59.5447 64.1057C58.9656 64.6852 58.2901 64.975 57.4215 64.975H46.4197C45.5512 64.975 44.8756 64.7818 44.4896 64.492C44.1036 64.1057 43.6211 63.333 43.235 62.3671C41.9804 59.2763 40.3398 56.9582 38.3132 55.606C36.383 54.1571 33.7774 53.481 30.6891 53.481C26.4429 53.481 23.1616 54.8333 20.8455 57.4411C18.5293 60.049 17.2747 64.1057 17.1782 69.5146L17.0817 74.0542L17.1782 78.1109C17.5642 88.8322 22.1 94.1445 30.5926 94.1445C33.7774 94.1445 36.383 93.4684 38.4097 92.2128C40.3398 90.7639 41.9804 88.5424 43.235 85.2584C43.5245 84.3891 43.9106 83.713 44.3931 83.3267C44.8756 82.9403 45.5512 82.7471 46.5163 82.7471H57.518C58.3866 82.7471 59.0621 83.0369 59.6412 83.6164C60.3167 84.196 60.6062 84.8721 60.5097 85.7414C60.3167 88.639 59.1586 91.7298 57.0355 95.1104C54.9123 98.3944 51.6311 101.292 47.1918 103.61C42.656 105.928 37.0586 107.184 30.3996 107.184ZM67.0722 105.928C66.2036 105.928 65.5281 105.638 64.9491 105.059C64.37 104.479 64.0805 103.803 64.0805 102.934V21.1241C64.0805 20.2548 64.37 19.4821 64.9491 18.9992C65.5281 18.4196 66.2036 18.1299 67.0722 18.1299H78.267C79.1355 18.1299 79.9076 18.4196 80.3901 18.9992C80.9692 19.4821 81.2587 20.1582 81.2587 21.1241V49.3278C86.1805 43.4359 92.8395 40.4417 101.139 40.4417C108.763 40.4417 114.747 42.953 119.282 47.9755C123.818 52.9015 126.038 59.6627 126.038 68.259V103.031C126.038 103.9 125.748 104.576 125.169 105.156C124.687 105.735 124.011 106.025 123.046 106.025H111.948C111.079 106.025 110.307 105.735 109.728 105.156C109.149 104.576 108.86 103.9 108.86 103.031V68.9351C108.86 64.1057 107.702 60.4354 105.289 57.8275C102.973 55.123 99.6915 53.7708 95.2522 53.7708C91.0059 53.7708 87.6281 55.123 85.1189 57.8275C82.6098 60.5319 81.2587 64.2989 81.2587 68.9351V102.934C81.2587 103.803 80.9692 104.479 80.3901 105.059C79.9076 105.638 79.232 105.928 78.267 105.928H67.0722ZM160.394 107.184C151.13 107.184 143.795 104.576 138.391 99.2637C133.083 93.9513 130.188 86.5141 129.898 76.7587L129.802 73.6679C129.802 63.333 132.504 55.2196 137.812 49.3278C143.216 43.4359 150.744 40.4417 160.298 40.4417C170.141 40.4417 177.669 43.4359 182.88 49.3278C188.188 55.2196 190.89 63.1398 190.89 73.0884V75.6962C190.89 76.5655 190.601 77.2416 190.022 77.8212C189.443 78.4007 188.671 78.6905 187.802 78.6905H146.787V79.6563C146.98 84.2925 148.234 88.0595 150.454 91.1503C152.867 94.1445 156.051 95.5933 160.201 95.5933C164.93 95.5933 168.694 93.6616 171.686 89.8946C172.458 89.0254 173.037 88.4458 173.423 88.2527C173.809 87.9629 174.581 87.8663 175.546 87.8663H186.451C187.223 87.8663 187.802 88.0595 188.285 88.4458C188.864 88.8322 189.153 89.4117 189.153 90.1844C189.153 92.1162 187.995 94.5309 185.582 97.2353C183.266 99.8432 179.985 102.161 175.546 104.19C171.203 106.218 166.088 107.184 160.394 107.184ZM173.809 68.0658V67.776C173.809 62.9466 172.554 59.0831 170.141 56.1855C167.729 53.1913 164.448 51.7425 160.298 51.7425C156.051 51.7425 152.77 53.1913 150.454 56.1855C148.041 59.0831 146.883 62.9466 146.883 67.776V68.0658H173.809ZM222.545 107.184C213.473 107.184 206.235 104.673 200.831 99.65C195.523 94.6274 192.627 87.6731 192.338 78.787L192.241 73.8611L192.338 68.9351C192.627 60.049 195.523 53.0947 200.831 48.0721C206.235 43.0495 213.473 40.5383 222.545 40.5383C229.011 40.5383 234.511 41.6973 238.951 44.0154C243.487 46.3335 246.768 49.1346 248.987 52.5152C251.207 55.7991 252.365 58.9865 252.558 62.0774C252.655 62.9466 252.365 63.6228 251.69 64.2023C251.111 64.7818 250.435 65.0716 249.566 65.0716H238.565C237.696 65.0716 237.021 64.8784 236.635 64.5886C236.249 64.2023 235.766 63.4296 235.38 62.4637C234.125 59.3729 232.485 57.0548 230.458 55.7026C228.528 54.2537 225.922 53.5776 222.834 53.5776C218.588 53.5776 215.307 54.9298 212.99 57.5377C210.674 60.1456 209.42 64.2023 209.323 69.6112L209.227 74.1508L209.323 78.2075C209.806 88.9288 214.341 94.2411 222.931 94.2411C226.115 94.2411 228.721 93.565 230.748 92.3093C232.678 90.8605 234.318 88.639 235.573 85.355C235.863 84.4857 236.249 83.8096 236.731 83.4233C237.214 83.0369 237.889 82.8437 238.854 82.8437H249.856C250.725 82.8437 251.4 83.1335 251.979 83.713C252.655 84.2925 252.944 84.9687 252.848 85.838C252.655 88.7356 251.497 91.8264 249.373 95.207C247.25 98.491 243.969 101.389 239.53 103.707C234.704 105.928 229.204 107.184 222.545 107.184ZM259.217 105.928C258.349 105.928 257.673 105.638 257.094 105.059C256.515 104.479 256.225 103.803 256.225 102.934V21.1241C256.225 20.2548 256.515 19.4821 257.094 18.9992C257.673 18.4196 258.349 18.1299 259.217 18.1299H269.447C270.315 18.1299 270.991 18.4196 271.57 18.9992C272.149 19.5787 272.439 20.2548 272.439 21.1241V63.4296L292.898 43.7257C293.188 43.5325 293.477 43.2427 294.056 42.8564C294.635 42.3734 295.214 41.9871 295.697 41.8905C296.179 41.6973 296.855 41.6007 297.53 41.6007H309.304C310.173 41.6007 310.752 41.8905 311.234 42.3734C311.717 42.8564 312.006 43.5325 312.006 44.3052C312.006 45.0779 311.62 45.754 310.752 46.5267L285.564 70.3839L313.84 101.002C314.612 101.775 314.998 102.451 314.998 103.127C314.998 103.996 314.709 104.576 314.226 105.059C313.743 105.542 313.068 105.832 312.392 105.832H300.426C299.267 105.832 298.399 105.735 297.82 105.445C297.337 105.156 296.662 104.576 295.89 103.707L272.535 78.8836V102.837C272.535 103.707 272.246 104.383 271.667 104.962C271.087 105.542 270.412 105.832 269.543 105.832H259.217V105.928Z" fill="#282C34"/>
<path d="M370.779 81.6852L352.443 65.3618C351.96 64.9755 351.671 64.2994 351.671 63.7198V46.5272C351.671 45.2716 352.636 44.3057 353.89 44.3057H356.013C356.206 44.3057 356.496 44.3057 356.689 44.3057C362.093 44.3057 380.333 44.1125 380.333 29.9141C380.333 17.744 361.225 18.1304 346.459 18.5167C344.529 18.5167 342.695 18.6133 340.958 18.6133C339.704 18.6133 338.739 19.5792 338.739 20.8348C338.739 23.153 338.739 26.8233 338.739 30.5902C338.739 33.9708 338.739 37.2548 338.739 39.4763V90.1849C338.739 90.7644 338.546 91.344 338.063 91.8269L324.552 105.349C323.105 106.798 320.692 105.736 320.692 103.707V2.86951C320.692 1.61387 321.657 0.647987 322.912 0.647987H329.667C332.562 0.647987 335.361 0.647987 338.256 0.551399C338.449 0.551399 338.739 0.551399 338.932 0.551399C360.163 0.358224 380.14 0.165048 391.045 10.8863C395.967 15.7157 398.38 22.0905 398.38 29.9141C398.38 43.1466 390.273 53.4815 376.955 58.6973C375.411 59.2768 374.929 61.4017 376.183 62.4642L383.614 69.0322C383.711 69.1288 383.904 69.2253 384 69.3219L400.214 83.9067C400.31 84.0033 400.31 84.0999 400.407 84.0999L420.48 102.934C421.445 103.804 421.445 105.156 420.673 106.122L411.601 116.264C410.733 117.229 409.382 117.229 408.417 116.457L387.282 96.7529" fill="#0065E0"/>
<path d="M400.117 78.8843C400.793 79.5604 401.854 79.4638 402.53 78.8843L421.349 58.3111C422.217 57.4418 422.217 55.993 421.349 55.1237L411.408 45.9479C410.54 45.0786 409.092 45.0786 408.224 45.9479L389.405 66.5211C388.729 67.1972 388.729 68.3562 389.405 69.0324L400.117 78.8843Z" fill="#0065E0"/>
<path d="M371.069 87.0942C370.393 86.4181 369.331 86.5147 368.656 87.1908L313.454 142.246C312.489 143.212 310.945 143.115 310.173 142.053L292.03 118.195C291.643 117.713 290.968 117.423 290.292 117.423H272.632C270.702 117.423 269.64 119.644 270.895 121.093L309.015 168.711C309.883 169.677 311.427 169.773 312.296 168.904L381.974 99.4574C382.649 98.7813 382.649 97.5257 381.877 96.8496L371.069 87.0942Z" fill="#0065E0"/>
</svg>
